<svg width="527" height="154" viewBox="0 0 527 154" fill="none" xmlns="http://www.w3.org/2000/svg">
<path d="M13.3026 11.0909V142H36.0582V51.8722H37.2727L73.4517 141.616H90.4545L126.634 52.0639H127.848V142H150.604V11.0909H121.584L82.7202 105.949H81.1861L42.3224 11.0909H13.3026ZM205.089 108.966C205.089 120.932 196.55 126.864 188.368 126.864C179.47 126.864 173.538 120.574 173.538 110.602V63.4545H155.027V113.466C155.027 132.335 165.766 143.023 181.209 143.023C192.97 143.023 201.254 136.835 204.834 128.04H205.652V142H223.601V63.4545H205.089V108.966ZM290.316 84.2159C287.759 70.9205 277.123 62.4318 258.714 62.4318C239.793 62.4318 226.907 71.7386 226.958 86.2614C226.907 97.7159 233.964 105.284 249.049 108.403L262.447 111.216C269.657 112.801 273.032 115.716 273.032 120.165C273.032 125.534 267.202 129.574 258.407 129.574C249.918 129.574 244.395 125.892 242.81 118.835L224.759 120.574C227.06 134.994 239.18 143.534 258.458 143.534C278.094 143.534 291.952 133.358 292.003 118.477C291.952 107.278 284.742 100.426 269.913 97.2045L256.515 94.3409C248.538 92.5511 245.367 89.7898 245.418 85.2386C245.367 79.9205 251.248 76.2386 258.969 76.2386C267.509 76.2386 272.009 80.892 273.441 86.0568L290.316 84.2159ZM292.868 142H311.379V63.4545H292.868V142ZM302.174 52.3068C308.055 52.3068 312.862 47.8068 312.862 42.2841C312.862 36.7102 308.055 32.2102 302.174 32.2102C296.243 32.2102 291.436 36.7102 291.436 42.2841C291.436 47.8068 296.243 52.3068 302.174 52.3068ZM350.276 143.534C370.014 143.534 382.594 131.824 383.924 115.153H366.23C364.645 123.591 358.56 128.449 350.429 128.449C338.872 128.449 331.407 118.784 331.407 102.727C331.407 86.875 339.026 77.3636 350.429 77.3636C359.327 77.3636 364.799 83.0909 366.23 90.6591H383.924C382.645 73.6307 369.35 62.4318 350.174 62.4318C327.162 62.4318 312.639 79.0511 312.639 103.034C312.639 126.812 326.804 143.534 350.276 143.534ZM418.985 143.534C438.724 143.534 451.303 131.824 452.633 115.153H434.94C433.355 123.591 427.269 128.449 419.139 128.449C407.582 128.449 400.116 118.784 400.116 102.727C400.116 86.875 407.735 77.3636 419.139 77.3636C428.036 77.3636 433.508 83.0909 434.94 90.6591H452.633C451.355 73.6307 438.059 62.4318 418.883 62.4318C395.872 62.4318 381.349 79.0511 381.349 103.034C381.349 126.812 395.514 143.534 418.985 143.534ZM476.036 143.585C488.359 143.585 495.723 137.807 499.098 131.21H499.712V142H517.507V89.4318C517.507 68.6704 500.581 62.4318 485.598 62.4318C469.081 62.4318 456.399 69.7954 452.308 84.1136L469.592 86.5682C471.433 81.1989 476.649 76.5966 485.7 76.5966C494.291 76.5966 498.996 80.9943 498.996 88.7159V89.0227C498.996 94.3409 493.422 94.5966 479.564 96.0795C464.325 97.7159 449.751 102.267 449.751 119.96C449.751 135.403 461.053 143.585 476.036 143.585ZM480.842 129.983C473.121 129.983 467.598 126.455 467.598 119.653C467.598 112.545 473.786 109.58 482.07 108.403C486.928 107.739 496.643 106.511 499.047 104.568V113.824C499.047 122.568 491.99 129.983 480.842 129.983Z" fill="white"/>
<path d="M302 50.3H257C257 50.3 260.589 47.12 260.6 40.3C260.611 33.48 257 32.3 257 32.3" stroke="white" stroke-width="4"/>
</svg>
