<svg xmlns="http://www.w3.org/2000/svg" width="500" height="470" viewBox="0 0 500 470" version="1.1">
	<path d="M 43 235.145 L 43 432.289 49.750 431.652 C 53.462 431.301, 68.762 431.011, 83.750 431.007 L 111 431 111 296 C 111 167.735, 111.088 161, 112.762 161 C 114.168 161, 125.475 188.169, 168.631 295.250 L 222.738 429.500 248.619 429.749 L 274.500 429.997 328.500 296.033 C 358.200 222.353, 383.103 161.827, 383.840 161.531 C 384.577 161.236, 385.590 161.247, 386.090 161.556 C 386.629 161.889, 387 216.901, 387 296.559 L 387 431 421 431 L 455 431 455 235.114 L 455 39.228 426.750 38.542 C 411.212 38.165, 391.565 38.001, 383.090 38.178 L 367.679 38.500 309.497 180.500 C 255.271 312.842, 251.144 322.520, 248.816 322.801 C 246.404 323.092, 245.455 320.995, 221.190 261.801 C 207.369 228.085, 181.303 164.500, 163.266 120.500 C 145.229 76.500, 130.113 39.938, 129.676 39.250 C 129.061 38.282, 119.203 38, 85.941 38 L 43 38 43 235.145 M 266.214 125.546 C 259.100 131.640, 247.587 133.796, 240.393 130.382 C 237.557 129.037, 236.484 128.971, 234.016 129.993 C 231.468 131.049, 231.199 131.503, 232.110 133.205 C 232.694 134.296, 235.207 136.089, 237.695 137.189 C 241.444 138.848, 243.701 139.111, 250.860 138.723 C 255.612 138.465, 260.512 137.920, 261.750 137.511 L 264 136.767 264 162.383 C 264 176.473, 263.824 188, 263.609 188 C 263.394 188, 261.257 187.110, 258.859 186.022 C 250 182.002, 238.219 184.913, 232.383 192.565 C 229.980 195.715, 229.500 197.300, 229.500 202.079 C 229.500 206.983, 229.942 208.361, 232.553 211.587 C 239.052 219.616, 249.769 222.084, 259.264 217.737 C 262.577 216.220, 265.848 213.755, 267.607 211.450 L 270.500 207.659 270.787 176.580 C 270.944 159.486, 270.944 140.184, 270.787 133.687 L 270.500 121.875 266.214 125.546" stroke="none" fill="black" fill-rule="evenodd"/>
</svg>